name C:\Users\antoi\Documents\MyRepositories\upper-imu-dc\Results\main_tracking\Case_78\FLX01_orientations_groundFrame.mot
datacolumns 13
datarows 14
range 4.83000000 4.96000000
endheader 
time	radius_imu_[0][0]	radius_imu_[0][1]	radius_imu_[0][2]	radius_imu_[1][0]	radius_imu_[1][1]	radius_imu_[1][2]	radius_imu_[2][0]	radius_imu_[2][1]	radius_imu_[2][2]	radius_imu_x	radius_imu_y	radius_imu_z	
          4.83000000	          0.28501427	         -0.95208497	          0.11091021	         -0.37332173	         -0.00368792	          0.92769461	         -0.88283507	         -0.30581139	         -0.35648512	         -1.93766917	          0.11113886	          1.27992861	
          4.84000000	          0.28179017	         -0.95110445	          0.12646985	         -0.36999082	          0.01390177	          0.92893139	         -0.88526894	         -0.30855642	         -0.34798254	         -1.92922083	          0.12680944	          1.28275881	
          4.85000000	          0.27884123	         -0.94978995	          0.14193882	         -0.36668490	          0.03130214	          0.92981846	         -0.88757521	         -0.31131854	         -0.33954530	         -1.92092451	          0.14241979	          1.28523796	
          4.86000000	          0.27616278	         -0.94815225	          0.15729411	         -0.36338661	          0.04850344	          0.93037497	         -0.88976643	         -0.31409351	         -0.33115098	         -1.91274670	          0.15795005	          1.28737319	
          4.87000000	          0.27375065	         -0.94620268	          0.17251395	         -0.36007675	          0.06549739	          0.93062067	         -0.89185499	         -0.31687627	         -0.32277563	         -1.90465242	          0.17338132	          1.28917087	
          4.88000000	          0.27160070	         -0.94395317	          0.18757792	         -0.35673532	          0.08227719	          0.93057529	         -0.89385288	         -0.31966057	         -0.31439489	         -1.89660638	          0.18869571	          1.29063696	
          4.89000000	          0.26970858	         -0.94141637	          0.20246605	         -0.35334295	          0.09883625	          0.93025811	         -0.89577120	         -0.32243854	         -0.30598585	         -1.88857483	          0.20387547	          1.29177748	
          4.90000000	          0.26807055	         -0.93860519	          0.21716005	         -0.34988102	          0.11516903	          0.92968778	         -0.89761988	         -0.32520209	         -0.29752671	         -1.88052525	          0.21890414	          1.29259750	
          4.91000000	          0.26668200	         -0.93553278	          0.23164439	         -0.34633253	          0.13127237	          0.92888177	         -0.89940785	         -0.32794204	         -0.28899746	         -1.87242717	          0.23376772	          1.29310264	
          4.92000000	          0.26553786	         -0.93221252	          0.24590540	         -0.34268258	          0.14714420	          0.92785626	         -0.90114277	         -0.33064846	         -0.28038063	         -1.86425293	          0.24845367	          1.29329876	
          4.93000000	          0.26463269	         -0.92865788	          0.25993090	         -0.33891868	          0.16278307	          0.92662603	         -0.90283092	         -0.33331098	         -0.27166179	         -1.85597816	          0.26295065	          1.29319183	
          4.94000000	          0.26396042	         -0.92488241	          0.27371046	         -0.33503066	          0.17818840	          0.92520449	         -0.90447739	         -0.33591877	         -0.26282928	         -1.84758158	          0.27724871	          1.29278828	
          4.95000000	          0.26351424	         -0.92089957	          0.28723550	         -0.33101050	          0.19336069	          0.92360364	         -0.90608625	         -0.33846068	         -0.25387413	         -1.83904489	          0.29133946	          1.29209506	
          4.96000000	          0.26328673	         -0.91672266	          0.30049903	         -0.32685207	          0.20830125	          0.92183421	         -0.90766063	         -0.34092544	         -0.24478974	         -1.83035252	          0.30521583	          1.29111961	
